<svg width="32" height="23" viewBox="0 0 32 23" fill="none" xmlns="http://www.w3.org/2000/svg">
<path d="M20.8454 1.35444L20.8454 1.35449L20.8514 1.36055L30.8034 11.3135L30.8034 11.3136L30.81 11.32C31.0498 11.5511 31.0504 11.9388 30.8096 12.1714L30.8095 12.1714L30.8034 12.1775L20.8514 22.1295L20.8514 22.1294L20.845 22.136C20.6172 22.3724 20.224 22.3819 19.9716 22.1295L19.9711 22.129C19.7423 21.9008 19.7324 21.5003 19.9749 21.2463L28.0182 13.2179L28.8737 12.364H27.665H1.111C0.777413 12.364 0.5 12.0892 0.5 11.737C0.5 11.3945 0.767917 11.1258 1.11133 11.125C1.11149 11.125 1.11165 11.125 1.11181 11.125L27.665 11.125H28.8721L28.0186 10.2715L19.9716 2.22446L19.9711 2.22405C19.7382 1.99163 19.7376 1.59453 19.9716 1.36056C20.2237 1.1084 20.6163 1.11729 20.8454 1.35444Z" fill="#0078F2"/>
<path d="M20.8454 1.35444L20.8454 1.35449L20.8514 1.36055L30.8034 11.3135L30.8034 11.3136L30.81 11.32C31.0498 11.5511 31.0504 11.9388 30.8096 12.1714L30.8095 12.1714L30.8034 12.1775L20.8514 22.1295L20.8514 22.1294L20.845 22.136C20.6172 22.3724 20.224 22.3819 19.9716 22.1295L19.9711 22.129C19.7423 21.9008 19.7324 21.5003 19.9749 21.2463L28.0182 13.2179L28.8737 12.364H27.665H1.111C0.777413 12.364 0.5 12.0892 0.5 11.737C0.5 11.3945 0.767917 11.1258 1.11133 11.125C1.11149 11.125 1.11165 11.125 1.11181 11.125L27.665 11.125H28.8721L28.0186 10.2715L19.9716 2.22446L19.9711 2.22405C19.7382 1.99163 19.7376 1.59453 19.9716 1.36056C20.2237 1.1084 20.6163 1.11729 20.8454 1.35444Z" fill="url(#paint0_linear)"/>
<path d="M20.8454 1.35444L20.8454 1.35449L20.8514 1.36055L30.8034 11.3135L30.8034 11.3136L30.81 11.32C31.0498 11.5511 31.0504 11.9388 30.8096 12.1714L30.8095 12.1714L30.8034 12.1775L20.8514 22.1295L20.8514 22.1294L20.845 22.136C20.6172 22.3724 20.224 22.3819 19.9716 22.1295L19.9711 22.129C19.7423 21.9008 19.7324 21.5003 19.9749 21.2463L28.0182 13.2179L28.8737 12.364H27.665H1.111C0.777413 12.364 0.5 12.0892 0.5 11.737C0.5 11.3945 0.767917 11.1258 1.11133 11.125C1.11149 11.125 1.11165 11.125 1.11181 11.125L27.665 11.125H28.8721L28.0186 10.2715L19.9716 2.22446L19.9711 2.22405C19.7382 1.99163 19.7376 1.59453 19.9716 1.36056C20.2237 1.1084 20.6163 1.11729 20.8454 1.35444Z" stroke="#0078F2"/>
<path d="M20.8454 1.35444L20.8454 1.35449L20.8514 1.36055L30.8034 11.3135L30.8034 11.3136L30.81 11.32C31.0498 11.5511 31.0504 11.9388 30.8096 12.1714L30.8095 12.1714L30.8034 12.1775L20.8514 22.1295L20.8514 22.1294L20.845 22.136C20.6172 22.3724 20.224 22.3819 19.9716 22.1295L19.9711 22.129C19.7423 21.9008 19.7324 21.5003 19.9749 21.2463L28.0182 13.2179L28.8737 12.364H27.665H1.111C0.777413 12.364 0.5 12.0892 0.5 11.737C0.5 11.3945 0.767917 11.1258 1.11133 11.125C1.11149 11.125 1.11165 11.125 1.11181 11.125L27.665 11.125H28.8721L28.0186 10.2715L19.9716 2.22446L19.9711 2.22405C19.7382 1.99163 19.7376 1.59453 19.9716 1.36056C20.2237 1.1084 20.6163 1.11729 20.8454 1.35444Z" stroke="url(#paint1_linear)"/>
<defs>
<linearGradient id="paint0_linear" x1="15.745" y1="0.674011" x2="15.745" y2="22.816" gradientUnits="userSpaceOnUse">
<stop stop-color="#0078F2"/>
<stop offset="1" stop-color="white" stop-opacity="0"/>
</linearGradient>
<linearGradient id="paint1_linear" x1="15.745" y1="0.674011" x2="15.745" y2="22.816" gradientUnits="userSpaceOnUse">
<stop stop-color="#0078F2"/>
<stop offset="1" stop-color="white" stop-opacity="0"/>
</linearGradient>
</defs>
</svg>
