<svg width="32" height="23" viewBox="0 0 32 23" fill="none" xmlns="http://www.w3.org/2000/svg">
<path d="M10.6446 1.35444L10.6446 1.35449L10.6386 1.36055L0.686562 11.3135L0.686621 11.3136L0.679998 11.32C0.440226 11.5511 0.439611 11.9388 0.680418 12.1714L0.68047 12.1714L0.686544 12.1775L10.6385 22.1295L10.6386 22.1294L10.645 22.136C10.8728 22.3724 11.266 22.3819 11.5184 22.1295L11.5189 22.129C11.7477 21.9008 11.7576 21.5003 11.5151 21.2463L3.47177 13.2179L2.61629 12.364H3.82499H30.379C30.7126 12.364 30.99 12.0892 30.99 11.737C30.99 11.3945 30.7221 11.1258 30.3787 11.125C30.3785 11.125 30.3783 11.125 30.3782 11.125L3.82499 11.125H2.61788L3.47144 10.2715L11.5184 2.22446L11.5189 2.22405C11.7518 1.99163 11.7524 1.59453 11.5184 1.36056C11.2663 1.1084 10.8737 1.11729 10.6446 1.35444Z" fill="#0078F2"/>
<path d="M10.6446 1.35444L10.6446 1.35449L10.6386 1.36055L0.686562 11.3135L0.686621 11.3136L0.679998 11.32C0.440226 11.5511 0.439611 11.9388 0.680418 12.1714L0.68047 12.1714L0.686544 12.1775L10.6385 22.1295L10.6386 22.1294L10.645 22.136C10.8728 22.3724 11.266 22.3819 11.5184 22.1295L11.5189 22.129C11.7477 21.9008 11.7576 21.5003 11.5151 21.2463L3.47177 13.2179L2.61629 12.364H3.82499H30.379C30.7126 12.364 30.99 12.0892 30.99 11.737C30.99 11.3945 30.7221 11.1258 30.3787 11.125C30.3785 11.125 30.3783 11.125 30.3782 11.125L3.82499 11.125H2.61788L3.47144 10.2715L11.5184 2.22446L11.5189 2.22405C11.7518 1.99163 11.7524 1.59453 11.5184 1.36056C11.2663 1.1084 10.8737 1.11729 10.6446 1.35444Z" fill="url(#paint0_linear)"/>
<path d="M10.6446 1.35444L10.6446 1.35449L10.6386 1.36055L0.686562 11.3135L0.686621 11.3136L0.679998 11.32C0.440226 11.5511 0.439611 11.9388 0.680418 12.1714L0.68047 12.1714L0.686544 12.1775L10.6385 22.1295L10.6386 22.1294L10.645 22.136C10.8728 22.3724 11.266 22.3819 11.5184 22.1295L11.5189 22.129C11.7477 21.9008 11.7576 21.5003 11.5151 21.2463L3.47177 13.2179L2.61629 12.364H3.82499H30.379C30.7126 12.364 30.99 12.0892 30.99 11.737C30.99 11.3945 30.7221 11.1258 30.3787 11.125C30.3785 11.125 30.3783 11.125 30.3782 11.125L3.82499 11.125H2.61788L3.47144 10.2715L11.5184 2.22446L11.5189 2.22405C11.7518 1.99163 11.7524 1.59453 11.5184 1.36056C11.2663 1.1084 10.8737 1.11729 10.6446 1.35444Z" stroke="#0078F2"/>
<path d="M10.6446 1.35444L10.6446 1.35449L10.6386 1.36055L0.686562 11.3135L0.686621 11.3136L0.679998 11.32C0.440226 11.5511 0.439611 11.9388 0.680418 12.1714L0.68047 12.1714L0.686544 12.1775L10.6385 22.1295L10.6386 22.1294L10.645 22.136C10.8728 22.3724 11.266 22.3819 11.5184 22.1295L11.5189 22.129C11.7477 21.9008 11.7576 21.5003 11.5151 21.2463L3.47177 13.2179L2.61629 12.364H3.82499H30.379C30.7126 12.364 30.99 12.0892 30.99 11.737C30.99 11.3945 30.7221 11.1258 30.3787 11.125C30.3785 11.125 30.3783 11.125 30.3782 11.125L3.82499 11.125H2.61788L3.47144 10.2715L11.5184 2.22446L11.5189 2.22405C11.7518 1.99163 11.7524 1.59453 11.5184 1.36056C11.2663 1.1084 10.8737 1.11729 10.6446 1.35444Z" stroke="url(#paint1_linear)"/>
<defs>
<linearGradient id="paint0_linear" x1="15.745" y1="0.674011" x2="15.745" y2="22.816" gradientUnits="userSpaceOnUse">
<stop stop-color="#0078F2"/>
<stop offset="1" stop-color="white" stop-opacity="0"/>
</linearGradient>
<linearGradient id="paint1_linear" x1="15.745" y1="0.674011" x2="15.745" y2="22.816" gradientUnits="userSpaceOnUse">
<stop stop-color="#0078F2"/>
<stop offset="1" stop-color="white" stop-opacity="0"/>
</linearGradient>
</defs>
</svg>
